<?xml version="1.0" standalone="no"?>
<!DOCTYPE svg PUBLIC "-//W3C//DTD SVG 20010904//EN"
 "http://www.w3.org/TR/2001/REC-SVG-20010904/DTD/svg10.dtd">
<svg version="1.0" xmlns="http://www.w3.org/2000/svg"
 width="1024.000000pt" height="1024.000000pt" viewBox="0 0 1024.000000 1024.000000"
 preserveAspectRatio="xMidYMid meet">
<metadata>
Created by potrace 1.11, written by Peter Selinger 2001-2013
</metadata>
<g transform="translate(0.000000,1024.000000) scale(0.100000,-0.100000)"
fill="#000000" stroke="none">
<path d="M2447 9814 c-1 -1 -39 -4 -84 -8 -45 -3 -93 -10 -107 -16 -15 -5 -26
-8 -26 -5 0 2 -13 0 -28 -6 l-29 -10 1 -214 1 -214 778 -775 c427 -427 777
-779 777 -784 0 -4 -71 -221 -158 -481 l-159 -475 -39 -13 c-156 -55 -1238
-412 -1240 -410 -2 1 -377 375 -834 831 -457 455 -833 827 -834 825 -2 -2 -6
-26 -10 -54 -3 -27 -8 -61 -11 -75 -2 -13 -7 -52 -11 -85 -7 -73 -8 -958 -1
-1000 3 -16 8 -55 12 -85 3 -30 10 -77 15 -105 5 -27 12 -64 15 -81 22 -135
109 -392 184 -544 348 -703 970 -1171 1735 -1306 230 -40 543 -36 746 12 14 3
36 8 49 10 13 3 51 11 84 19 l61 14 110 -107 c61 -59 120 -118 132 -130 l21
-24 -61 -91 c-81 -121 -142 -180 -278 -270 -391 -258 -840 -390 -1099 -323
-23 7 -97 -65 -877 -843 -469 -468 -852 -854 -852 -859 0 -4 382 -389 850
-856 764 -763 851 -847 867 -835 9 8 394 391 854 852 l838 839 -16 76 c-11 57
-14 108 -10 197 7 151 4 138 79 375 35 111 138 329 197 415 22 33 48 71 57 85
34 50 217 220 295 275 l80 56 127 -130 c955 -976 2551 -2582 2657 -2672 171
-146 381 -247 575 -275 19 -3 59 -9 87 -13 66 -10 260 -5 333 8 107 19 124 23
209 53 335 117 609 393 715 720 59 180 58 169 61 588 4 461 -8 554 -96 748
-16 35 -29 65 -29 67 0 5 -73 128 -87 145 -6 8 -37 46 -67 84 -31 38 -56 74
-56 81 0 7 -82 92 -182 190 -943 918 -1109 1082 -1845 1830 -254 259 -520 530
-592 603 l-130 134 1380 1380 1381 1381 107 -107 c104 -104 108 -106 119 -84
7 13 20 37 30 53 10 17 33 55 50 85 18 30 51 84 72 119 22 34 40 67 40 72 0 5
5 9 10 9 6 0 10 4 10 9 0 5 92 163 205 351 113 188 205 343 205 346 0 2 -95
99 -211 215 l-211 212 -36 -21 c-21 -11 -77 -45 -127 -75 -161 -98 -400 -242
-415 -250 -8 -4 -31 -17 -51 -30 -20 -12 -127 -76 -237 -142 l-201 -120 107
-107 106 -108 -1380 -1380 -1381 -1381 -53 51 c-29 28 -177 172 -329 320
l-277 270 1 392 c1 482 -14 639 -86 893 -77 270 -237 586 -399 789 -426 532
-1034 853 -1694 892 -92 6 -484 12 -489 8z m5824 -7488 c183 -47 323 -157 406
-321 33 -64 35 -72 23 -104 -33 -92 -133 -221 -220 -283 -252 -182 -582 -160
-810 54 -72 67 -162 208 -162 252 0 30 27 87 73 157 139 208 430 311 690 245z"/>
</g>
</svg>
